<svg width="311" height="78" viewBox="0 0 311 78" fill="none" xmlns="http://www.w3.org/2000/svg">
<path d="M71.3411 12.2535C71.3411 16.6834 69.0112 20.5643 65.5204 22.7167C63.2676 24.1058 61.2679 25.2551 61.2679 28.9401V37.1123C61.2679 40.7973 63.2676 41.9467 65.5204 43.3357C69.0112 45.4881 71.3411 49.369 71.3411 53.799C71.3411 60.5664 65.9039 66.0524 59.1967 66.0524C52.4896 66.0524 47.0524 60.5664 47.0524 53.799C47.0524 53.4166 47.0697 53.0383 47.1037 52.6649C47.3452 50.0102 47.738 47.7879 44.6917 45.5031C41.6454 43.2182 33.0678 36.7848 30.9955 35.2305C28.9232 33.6762 26.5132 33.704 24.9206 34.5201C23.328 35.3363 21.8279 36.7794 21.8279 39.8863V49.0616C21.8279 52.7461 23.8269 53.8951 26.079 55.2843C29.5689 57.4369 31.8981 61.3173 31.8981 65.7465C31.8981 72.5139 26.4609 78 19.7537 78C13.0466 78 7.60938 72.5139 7.60938 65.7465C7.60938 61.3147 9.94124 57.4324 13.4346 55.2805C15.6892 53.8917 17.6909 52.7416 17.6909 49.0551V40.8924C17.6909 37.206 15.6892 36.0559 13.4345 34.6671C9.94124 32.5152 7.60938 28.6329 7.60938 24.201C7.60938 17.4336 13.0466 11.9476 19.7537 11.9476C26.4609 11.9476 31.8981 17.4336 31.8981 24.201C31.8981 24.58 31.881 24.9549 31.8477 25.3251C31.6086 27.9773 31.1868 30.1729 34.2611 32.4787C37.3354 34.7845 45.9043 41.2114 47.9727 42.7628C50.041 44.3141 52.6082 44.3073 54.2814 43.3263C55.9546 42.3453 57.131 41.2188 57.131 38.1124V28.9432C57.131 25.2572 55.1299 24.1074 52.876 22.7185C49.3835 20.5665 47.0524 16.6846 47.0524 12.2535C47.0524 5.48606 52.4896 0 59.1967 0C65.9039 0 71.3411 5.48606 71.3411 12.2535Z" fill="black"/>
<path d="M86.2715 31.0822H97.3612V34.6566C100.294 31.7237 104.51 29.8907 109.184 29.8907C114.133 29.8907 118.532 31.8154 121.74 35.1148C125.131 38.4142 127.147 42.9967 127.147 50.0538V75.8992H115.233V51.062C115.233 46.846 114.316 44.7381 112.758 43.18C111.292 41.622 109.092 40.7055 106.709 40.7055C104.327 40.7055 102.127 41.622 100.661 43.18C99.1025 44.8297 98.186 46.846 98.186 51.062V75.8992H86.2715V31.0822Z" fill="black"/>
<path d="M155.538 77.1823C141.791 77.1823 131.343 66.7341 131.343 53.5365C131.343 40.3389 141.791 29.8907 155.538 29.8907C169.286 29.8907 179.734 40.3389 179.734 53.5365C179.734 66.7341 169.286 77.1823 155.538 77.1823ZM155.538 66.0009C162.229 66.0009 167.453 60.6852 167.453 53.5365C167.453 46.3878 162.229 41.0721 155.538 41.0721C148.756 41.0721 143.624 46.3878 143.624 53.5365C143.624 60.6852 148.756 66.0009 155.538 66.0009Z" fill="black"/>
<path d="M206.827 77.1823C193.079 77.1823 182.631 66.7341 182.631 53.5365C182.631 40.3389 193.079 29.8907 206.827 29.8907C220.574 29.8907 231.023 40.3389 231.023 53.5365C231.023 66.7341 220.574 77.1823 206.827 77.1823ZM206.827 66.0009C213.517 66.0009 218.741 60.6852 218.741 53.5365C218.741 46.3878 213.517 41.0721 206.827 41.0721C200.045 41.0721 194.912 46.3878 194.912 53.5365C194.912 60.6852 200.045 66.0009 206.827 66.0009Z" fill="black"/>
<path d="M265.386 75.8995L247.239 55.3699V75.8995H235.324V14.3984H247.239V50.2374L264.194 31.0825H279.042L260.07 52.1621L281.058 75.8995H265.386Z" fill="black"/>
<path d="M294.869 77.1823C286.675 77.1823 279.981 72.4662 278.022 65.0315L288.776 61.2126C289.978 64.9642 292.134 66.7342 294.869 66.7342C297.252 66.7342 298.902 65.1761 298.902 62.9765C298.902 61.1435 297.802 59.952 295.328 59.1272L290.287 57.3858C282.13 54.5447 279.014 49.2289 279.014 43.5466C279.014 35.9397 285.704 29.8907 294.594 29.8907C301.56 29.8907 307.334 33.7401 309.35 39.1474L298.352 43.1116C297.856 41.4055 296.336 40.3389 294.594 40.3389C292.578 40.3389 291.112 41.5303 291.112 43.2717C291.112 44.7381 292.12 45.7462 294.32 46.4794L299.177 48.1291C308.159 51.1536 311 57.3858 311 62.7015C311 70.6751 304.126 77.1823 294.869 77.1823Z" fill="black"/>
</svg>
